<svg id="Layer_1" data-name="Layer 1" xmlns="http://www.w3.org/2000/svg" viewBox="0 0 720 123.3"><defs><style>.cls-1{fill:#0080c6;}</style></defs><title>Artboard 2</title><path class="cls-1" d="M156.5,21.4c-8.2,0-13.5,3.8-13.5,10.2,0,6.8,6.6,9.3,13.8,12.2l11.7,4.9C178.9,53.1,186,59.6,186,72.2,186,86.3,174.3,98,154.8,98a44.2,44.2,0,0,1-31.2-12.8l8.9-10.5c6.3,5.8,14.6,9.8,22.7,9.8,9.7,0,15.1-4.4,15.1-11.2,0-7.2-5.6-9.5-13.5-12.8L145,55.3c-8.6-3.6-17.5-10.4-17.5-23.1,0-13.8,12.2-24.5,29.1-24.5a38.57,38.57,0,0,1,26.8,11l-8,9.9c-5.4-4.4-11.4-7.2-18.9-7.2Z"/><path class="cls-1" d="M216.7,74.4c0,7.7,2.9,11.4,9.2,11.4a18.79,18.79,0,0,0,6.8-1.5l2.6,11.3A41.6,41.6,0,0,1,222,98c-15.1,0-20.7-9.6-20.7-23.7V43.2H192V31.8l10.1-.7L204,13.3h12.7V31.1h16.6V43.2H216.7V74.4Z"/><path class="cls-1" d="M283.1,44.2a20.2,20.2,0,0,0-6.8-1.1c-5.2,0-11.4,3.6-15.4,13.4V96.4H245.6V31.1h12.6l1.1,11.6h.5c4.7-8.5,11.6-13.2,18.5-13.2a17.42,17.42,0,0,1,7.5,1.3l-2.7,13.4Z"/><path class="cls-1" d="M345.3,60.6c0-18.2-9.3-31-27-31-15.3,0-30,13-30,34.3,0,21.6,14.1,34.2,32.2,34.2a41.2,41.2,0,0,0,22.3-7l-5.2-9.6a27.09,27.09,0,0,1-15.2,4.8c-10.5,0-17.9-6.6-19.2-18.5h41.4A27.63,27.63,0,0,0,345.3,60.6Zm-42.2-2.5c1.3-10.9,8-16.6,15.7-16.6,8.9,0,13.3,6.3,13.3,16.6Z"/><path class="cls-1" d="M411.4,60.6c0-18.2-9.3-31-27-31-15.3,0-30,13-30,34.3,0,21.6,14.1,34.2,32.1,34.2a40.93,40.93,0,0,0,22.3-7l-5.2-9.6a27.09,27.09,0,0,1-15.2,4.8c-10.5,0-17.9-6.6-19.3-18.5h41.5A27,27,0,0,0,411.4,60.6Zm-42.3-2.5c1.3-10.9,8-16.6,15.7-16.6,8.9,0,13.3,6.3,13.3,16.6Z"/><path class="cls-1" d="M442.8,74.4c0,7.7,2.9,11.4,9.2,11.4a18.79,18.79,0,0,0,6.8-1.5l2.6,11.3A41.6,41.6,0,0,1,448.1,98c-15.1,0-20.7-9.6-20.7-23.7V43.2h-9.3V31.8l10.1-.7,1.9-17.8h12.7V31.1h16.6V43.2H442.8V74.4Z"/><polygon class="cls-1" points="531.9 83.5 531.9 96.5 478.3 96.5 478.3 9.5 530.5 9.5 530.5 22.6 493.7 22.6 493.7 44.8 525 44.8 525 57.8 493.7 57.8 493.7 83.5 531.9 83.5"/><path class="cls-1" d="M570.7,29.6c-10.4,0-19.5,4-26.7,8.5l5.6,10.2c5.7-3.5,11.8-6.4,18.3-6.4,8.8,0,11.7,5.8,11.8,12.8-26.7,2.9-38.4,10.2-38.4,24.2,0,11.4,8,19.2,19.4,19.2,7.7,0,14.4-3.9,20.2-8.8h.4l1.2,7.2H595V57.8C595,39.6,587,29.6,570.7,29.6Zm9,49.3c-4.8,4.5-8.9,7.2-14.2,7.2s-9.3-2.5-9.3-8.4c0-6.5,5.8-11.2,23.5-13.4Z"/><path class="cls-1" d="M630.5,41.2c-6.5,0-9.6,3.1-9.6,7.2,0,5.1,6.5,7.2,13.5,9.7,8.9,3.3,18.7,7.6,18.7,19.8,0,11.2-8.9,20.2-25.4,20.2-8.9,0-18.3-3.9-24.7-9l7.2-9.8c5.9,4.5,11.4,7.3,18.1,7.3,7,0,10.4-3.3,10.4-7.9,0-5.5-7-7.9-14-10.5-8.6-3.2-18.3-8.1-18.3-19,0-11.4,9.2-19.6,23.8-19.6a34.71,34.71,0,0,1,21.7,7.9l-7,9.3c-4.6-3.4-9.3-5.6-14.4-5.6Z"/><path class="cls-1" d="M696.4,99.4c-5.4,14.8-12.2,23.9-26.4,23.9a25.32,25.32,0,0,1-8.5-1.3l2.8-12a16.36,16.36,0,0,0,4.7.9c6.9,0,10.9-4.7,13-11.2l1.2-4.1L657.6,31.1H673l11.3,32.1c1.9,5.7,3.7,12.2,5.7,18.4h.5c1.6-6,3.3-12.5,4.9-18.4l9.8-32.1H720L696.4,99.4Z"/><rect class="cls-1" x="57.2" y="57.8" width="5.8" height="7"/><rect class="cls-1" x="45.5" y="34.4" width="5.8" height="7"/><rect class="cls-1" x="57.2" y="46.1" width="5.8" height="7"/><rect class="cls-1" x="57.2" y="34.4" width="5.8" height="7"/><rect class="cls-1" x="45.5" y="46.1" width="5.8" height="7"/><rect class="cls-1" x="33.8" y="57.8" width="5.9" height="7"/><path class="cls-1" d="M48.4,0a48.4,48.4,0,1,0,0,96.8v20l34-34A48.3,48.3,0,0,0,48.4,0Zm24,29.7L70.1,32V71.8H51.3v-14H45.5v14H26.8V32l-2.3-2.3V25h48v4.7Z"/><rect class="cls-1" x="33.8" y="34.4" width="5.9" height="7"/><rect class="cls-1" x="33.8" y="46.1" width="5.9" height="7"/></svg>